<svg xmlns="http://www.w3.org/2000/svg"
    xmlns:xlink="http://www.w3.org/1999/xlink" width="40" height="929" viewBox="0 0 40 929">
    <svg data-name="图层 1" viewBox="0 0 40 40" width="40" height="40" id="collection-4" y="0">
        <title>collection-4</title>
        <path d="M20 33.8L11.2 37c-1.9.7-3.3-.4-3.2-2.4l.5-9.2-6-7.4c-1.3-1.5-.7-3.2 1.2-3.7l9.2-2.4L18 4c1.1-1.7 2.8-1.7 3.9 0l5.1 8 9.2 2.4c1.9.5 2.5 2.2 1.2 3.7l-6 7.4.5 9.2c.1 2-1.3 3.1-3.2 2.4z" fill="#fff"></path>
        <path d="M23.6 33.1l-6.4 2.3c-1.9.7-3.3-.4-3.2-2.4l.4-6.6-4.3-5.3c-1.3-1.6-.7-3.2 1.2-3.7l6.6-1.7 3.7-5.8c1.1-1.7 2.9-1.7 3.9 0l3.7 5.8 6.6 1.7c1.9.5 2.5 2.2 1.2 3.7l-4.3 5.3.4 6.6c.1 2-1.3 3.1-3.2 2.4z" fill="#ffd876"></path>
        <path d="M19.4 32.1a2.44 2.44 0 0 1 1.2 0l8.8 3.2c.7.2.8.1.8-.6l-.5-9.2a2 2 0 0 1 .4-1.3l6-7.4c.4-.5.4-.6-.3-.8l-9.2-2.4a2.1 2.1 0 0 1-1.1-.8l-5.1-8c-.4-.6-.5-.6-.9 0l-5.1 8a1.55 1.55 0 0 1-1.1.8L4.1 16c-.6.2-.7.3-.3.8l6 7.4a2 2 0 0 1 .4 1.3l-.5 9.2c0 .7.1.8.8.6zm-7.6 6.7a4 4 0 0 1-5.6-4.2l.5-8.5-5.6-6.8a3.93 3.93 0 0 1 2.2-6.6l8.5-2.2L16.5 3a4 4 0 0 1 7 0l4.8 7.4 8.5 2.2a3.94 3.94 0 0 1 2.2 6.6L33.4 26l.5 8.5a4 4 0 0 1-5.6 4.2l-8.2-3z" fill="#db8b20"></path>
        <path d="M19.8 14c-4.2.6-7.1 3.4-7.5 7.5a1.81 1.81 0 1 0 3.6.4c.2-2.4 1.8-3.9 4.4-4.3a1.81 1.81 0 0 0 1.6-2 2 2 0 0 0-2.1-1.6z" fill="#db8b20"></path>
        <path d="M33.2 8l1.2-4.8A1.71 1.71 0 0 0 33.1 1a1.78 1.78 0 0 0-2.2 1.3l-1.2 4.8A1.71 1.71 0 0 0 31 9.3 1.78 1.78 0 0 0 33.2 8z" fill="#db8c20"></path>
        <path data-name="Path-42" d="M37.8 9.9l1.8-2.4a1.79 1.79 0 0 0-2.9-2.1l-1.8 2.4a1.79 1.79 0 0 0 2.9 2.1z" fill="#db8c20"></path>
    </svg>
    <svg data-name="图层 1" viewBox="0 0 40 40" width="40" height="40" id="collection-icons" y="40">
        <title>collection-icons</title>
        <path d="M19.38 32.13a1.82 1.82 0 0 1 1.25 0l8.83 3.22c.65.24.8.13.76-.58l-.53-9.18a1.82 1.82 0 0 1 .41-1.26l6-7.36c.42-.52.38-.65-.27-.82l-9.19-2.42a1.82 1.82 0 0 1-1.07-.73l-5.14-8c-.36-.56-.5-.56-.86 0l-5.14 8a1.82 1.82 0 0 1-1.07.77l-9.19 2.39c-.65.17-.69.3-.27.82l6 7.36a1.82 1.82 0 0 1 .41 1.26l-.53 9.18c0 .71.1.82.76.58zm.62 3.64l-8.2 3a4 4 0 0 1-5.64-4.21l.49-8.47-5.56-6.81a4 4 0 0 1 2.16-6.63l8.51-2.24L16.51 3a4 4 0 0 1 7 0l4.76 7.4 8.51 2.24a4 4 0 0 1 2.16 6.63l-5.56 6.81.49 8.47a4 4 0 0 1-5.64 4.21z" fill="#999"></path>
    </svg>
    <svg data-name="图层 1" viewBox="0 0 40 40" width="40" height="40" id="comment" y="80">
        <title>comment-dynamic</title>
        <path d="M14.46 3.33h11.12c7.64 0 13.9 6 13.9 13.33S33.22 30 25.58 30h-.76l-7.28 6.67-2-6.67h-1.08C6.81 30 .56 24 .56 16.67S6.81 3.33 14.46 3.33zM36.7 16.67A10.91 10.91 0 0 0 25.58 6H14.46A10.91 10.91 0 0 0 3.34 16.67a10.91 10.91 0 0 0 11.12 10.66h3.19l.58 1.93.72 2.42 4-3.62.81-.74h1.88A10.91 10.91 0 0 0 36.7 16.67z" fill="#999"></path>
    </svg>
    <svg viewBox="0 0 40 40" width="40" height="40" id="comment-disable" y="120">
        <title>icon_comment_评论区</title>
        <path d="M14.5 3.3h11.1c7.6 0 13.9 6 13.9 13.3S33.2 30 25.6 30h-.8l-7.3 6.7-2-6.7h-1.1C6.8 30 .6 24 .6 16.7S6.8 3.3 14.5 3.3zm22.2 13.4c-.1-6-5.1-10.8-11.1-10.7H14.5c-6-.1-11 4.7-11.1 10.7.1 6 5.1 10.8 11.1 10.7h3.2l.6 1.9.7 2.4 4-3.6.8-.7h1.9c5.9 0 10.9-4.7 11-10.7z" fill="#dadada"></path>
    </svg>
    <svg data-name="图层 1" viewBox="0 0 40 40" width="40" height="40" id="comment-hover" y="160">
        <title>icon_comment_评论区</title>
        <path d="M14.46 3.33h11.12c7.64 0 13.9 6 13.9 13.33S33.22 30 25.58 30h-.76l-7.28 6.67-2-6.67h-1.08C6.81 30 .56 24 .56 16.67S6.81 3.33 14.46 3.33zM36.7 16.67A10.91 10.91 0 0 0 25.58 6H14.46A10.91 10.91 0 0 0 3.34 16.67a10.91 10.91 0 0 0 11.12 10.66h3.19l.58 1.93.72 2.42 4-3.62.81-.74h1.88A10.91 10.91 0 0 0 36.7 16.67z" fill="#fb7299"></path>
    </svg>
    <svg data-name="图层 1" viewBox="0 0 40 40" width="40" height="40" id="error" y="200">
        <title>error</title>
        <path d="M20 37.33A17.33 17.33 0 1 0 2.67 20 17.33 17.33 0 0 0 20 37.33z" fill="#fff"></path>
        <path d="M20 40a20 20 0 1 1 20-20 20 20 0 0 1-20 20zm0-2.67A17.33 17.33 0 1 0 2.67 20 17.33 17.33 0 0 0 20 37.33z" fill="#ff94b1"></path>
        <path d="M17.33 10.68a2.67 2.67 0 1 1 5.33 0v10.64a2.67 2.67 0 1 1-5.33 0zM20 32a2.67 2.67 0 1 1 2.67-2.67A2.67 2.67 0 0 1 20 32z" fill="#ea5c82"></path>
    </svg>
    <svg data-name="图层 1" viewBox="0 0 40 40" width="40" height="40" id="good-1" y="240">
        <title>good-1</title>
        <path d="M12.7 34.4c.8.2 1.9.5 4.2.9.2 0 .3.1.5.2a21.62 21.62 0 0 0 5.9.8h6.2a2.84 2.84 0 0 0 2.5-1.1 4.33 4.33 0 0 0 .4-1.1l.1-.2a3.2 3.2 0 0 0-.1-.7 1.77 1.77 0 0 1 .8-2.1 1.34 1.34 0 0 0 .6-.7c.1-.3.2-.5.5-1.3a3.07 3.07 0 0 0 0-1.9 1.76 1.76 0 0 1 .7-2.1c.3-.2.6-.8.8-2a1.19 1.19 0 0 0-.3-1.1 1.82 1.82 0 0 1 0-2c.6-.9.7-1.2.7-1.6v-.8a2.32 2.32 0 0 0-1.7-2.1c-.5-.1-1.4-.1-3.1-.2-.4 0-2.3-.1-2.8-.1-1.2 0-2.3-.1-3.4-.2a1.77 1.77 0 0 1-1.7-1.8 15.26 15.26 0 0 1 .1-1.8 12.13 12.13 0 0 0 .1-1.8c0-3-2.3-6-3.9-6a1.64 1.64 0 0 0-1.6 1.6 10.77 10.77 0 0 1-5.6 9.9h-.1v19.3zm-3.6 1.9V15.1H5.2a1.64 1.64 0 0 0-1.6 1.6v18.2a1.64 1.64 0 0 0 1.6 1.6h3.4a.76.76 0 0 1 .5-.2zm5.7-31.1A5.29 5.29 0 0 1 20 0c3.9 0 7.5 4.7 7.5 9.6a12.1 12.1 0 0 1-.1 1.9 7.57 7.57 0 0 1 1.5.1c.5 0 2.4.1 2.8.1 2 .1 3 .2 3.7.3a5.93 5.93 0 0 1 4.6 5.7v.8a4.69 4.69 0 0 1-.8 2.7 3.89 3.89 0 0 1 .2 2.8 8.07 8.07 0 0 1-1.3 3.4 5.44 5.44 0 0 1-.3 3.1c-.2.6-.4 1.1-.6 1.7a6 6 0 0 1-.9 1.3 3.4 3.4 0 0 1-.3 2 7.74 7.74 0 0 1-.7 1.6 6.47 6.47 0 0 1-5.7 3h-6.2a26.77 26.77 0 0 1-7.3-1.1c-1.6-.3-2.7-.5-3.6-.7a5.37 5.37 0 0 1-4 1.8H5.2A5.45 5.45 0 0 1 0 34.8V16.6a5.29 5.29 0 0 1 5.2-5.2h3.4a6 6 0 0 1 2.4.5 1 1 0 0 1 .3-.1 7.33 7.33 0 0 0 3.5-6.6zM6.9 32.7a1.8 1.8 0 1 1 1.8-1.8 1.79 1.79 0 0 1-1.78 1.8z" fill="#999"></path>
    </svg>
    <svg data-name="图层 1" viewBox="0 0 40 40" width="40" height="40" id="good-4" y="280">
        <title>good-4</title>
        <path d="M35.1 13.8c-1.3-.3-4.7-.3-9.6-.5 0-1 .3-2.1.3-3.6 0-4.2-3.1-7.8-5.7-7.8a3.5 3.5 0 0 0-3.4 3.4 9.2 9.2 0 0 1-4.7 8.3 3 3 0 0 0-1 .5 3.2 3.2 0 0 0-2.3-.8H5.2a3.5 3.5 0 0 0-3.4 3.4v18.2a3.5 3.5 0 0 0 3.4 3.4h3.4a3.35 3.35 0 0 0 3.1-2.1h.3a28.53 28.53 0 0 0 4.7 1 21.11 21.11 0 0 0 6.8 1h6.2a4.86 4.86 0 0 0 4.2-2.1 5.21 5.21 0 0 0 .5-1.3 2.54 2.54 0 0 0 0-2.1 4.27 4.27 0 0 0 1.8-2.9 4.1 4.1 0 0 0 0-3.1 4.58 4.58 0 0 0 1.6-3.1 3 3 0 0 0-.5-2.6 4.9 4.9 0 0 0 1-2.6v-.8a4.3 4.3 0 0 0-3.2-3.8z" fill="#fff"></path>
        <path d="M35.5 17.4c-1.1-.2-4-.2-8.2-.4 0-.9.2-1.8.2-3.1 0-3.5-2.6-6.6-4.9-6.6a3 3 0 0 0-2.9 2.9 7.89 7.89 0 0 1-4 7.1 3.92 3.92 0 0 0-.9.4 2.82 2.82 0 0 0-2-.7H9.9A3 3 0 0 0 7 19.9v15.5a3 3 0 0 0 2.9 2.9H13a2.8 2.8 0 0 0 2.6-1.8h.2c.7.2 1.5.4 4 .9a19.06 19.06 0 0 0 5.7.9h5.3a4 4 0 0 0 3.5-1.8 7 7 0 0 0 .4-1.1 2.74 2.74 0 0 0 0-1.8 3.82 3.82 0 0 0 1.5-2.4 3.79 3.79 0 0 0 0-2.6 3.41 3.41 0 0 0 1.3-2.6 2.78 2.78 0 0 0-.4-2.2 4.31 4.31 0 0 0 .9-2.2V21a3.24 3.24 0 0 0-2.5-3.6z" fill="#ffd876"></path>
        <path d="M12.7 34.4c.8.2 1.9.5 4.2.9.2 0 .3.1.5.2a21.62 21.62 0 0 0 5.9.8h6.2a2.84 2.84 0 0 0 2.5-1.1 4.33 4.33 0 0 0 .4-1.1l.1-.2a3.2 3.2 0 0 0-.1-.7 1.77 1.77 0 0 1 .8-2.1 1.34 1.34 0 0 0 .6-.7c.1-.3.2-.5.5-1.3a3.07 3.07 0 0 0 0-1.9 1.76 1.76 0 0 1 .7-2.1c.3-.2.6-.8.8-2a1.19 1.19 0 0 0-.3-1.1 1.82 1.82 0 0 1 0-2c.6-.9.7-1.2.7-1.6v-.8a2.32 2.32 0 0 0-1.7-2.1c-.5-.1-1.4-.1-3.1-.2-.4 0-2.3-.1-2.8-.1-1.2 0-2.3-.1-3.4-.2a1.77 1.77 0 0 1-1.7-1.8 15.26 15.26 0 0 1 .1-1.8 12.13 12.13 0 0 0 .1-1.8c0-3-2.3-6-3.9-6a1.64 1.64 0 0 0-1.6 1.6 10.77 10.77 0 0 1-5.6 9.9h-.1v19.3zm-3.6 1.9V15.1H5.2a1.64 1.64 0 0 0-1.6 1.6v18.2a1.64 1.64 0 0 0 1.6 1.6h3.4a.76.76 0 0 1 .5-.2zm5.7-31.1A5.29 5.29 0 0 1 20 0c3.9 0 7.5 4.7 7.5 9.6a12.1 12.1 0 0 1-.1 1.9 7.57 7.57 0 0 1 1.5.1c.5 0 2.4.1 2.8.1 2 .1 3 .2 3.7.3a5.93 5.93 0 0 1 4.6 5.7v.8a4.69 4.69 0 0 1-.8 2.7 3.89 3.89 0 0 1 .2 2.8 8.07 8.07 0 0 1-1.3 3.4 5.44 5.44 0 0 1-.3 3.1c-.2.6-.4 1.1-.6 1.7a6 6 0 0 1-.9 1.3 3.4 3.4 0 0 1-.3 2 7.74 7.74 0 0 1-.7 1.6 6.47 6.47 0 0 1-5.7 3h-6.2a26.77 26.77 0 0 1-7.3-1.1c-1.6-.3-2.7-.5-3.6-.7a5.37 5.37 0 0 1-4 1.8H5.2A5.45 5.45 0 0 1 0 34.8V16.6a5.29 5.29 0 0 1 5.2-5.2h3.4a6 6 0 0 1 2.4.5 1 1 0 0 1 .3-.1 7.33 7.33 0 0 0 3.5-6.6zM6.9 32.7a1.8 1.8 0 1 1 1.8-1.8 1.79 1.79 0 0 1-1.8 1.8zM33.1 8.3a15.23 15.23 0 0 1-1.7-3.2 3.81 3.81 0 0 1-.1-3.6c.5-.9 1.7-2 3-1.3A4.16 4.16 0 0 1 36 2.7a4.34 4.34 0 0 1 3-.1 2.3 2.3 0 0 1 .7 3.2 4.31 4.31 0 0 1-3 2 12.17 12.17 0 0 1-3.6.5z" fill="#db8b20"></path>
    </svg>
    <svg width="13" height="15" viewBox="0 0 13 15" id="link" y="320">
        <title>Combined Shape</title>
        <path d="M6.096 7.404a.6.6 0 1 1-.849.849 3.1 3.1 0 0 1 0-4.384L7.37 1.747a3.1 3.1 0 0 1 4.384 4.384l-1.85 1.85a.6.6 0 0 1-.849-.848l1.85-1.85a1.9 1.9 0 1 0-2.687-2.687L6.096 4.717a1.9 1.9 0 0 0 0 2.687zm.808.192a.6.6 0 1 1 .849-.849 3.1 3.1 0 0 1 0 4.384L5.63 13.253a3.1 3.1 0 0 1-4.384-4.384l1.85-1.85a.6.6 0 1 1 .849.848l-1.85 1.85a1.9 1.9 0 0 0 2.687 2.687l2.121-2.121a1.9 1.9 0 0 0 0-2.687z" fill="#00A1D6" fill-rule="nonzero"></path>
    </svg>
    <svg viewBox="0 0 17 16" width="17" height="16" id="lottery-btn" y="335">
        <title>Group Copy</title>
        <g fill="#00a1d6">
            <path d="M14.6 7.9H2.4c-1 0-1.8-.8-1.8-1.8s.8-1.8 1.8-1.8h12.2c1 0 1.8.8 1.8 1.8s-.8 1.8-1.8 1.8zM2.4 5.3c-.4 0-.8.4-.8.8s.4.8.8.8h12.2c.4 0 .8-.4.8-.8s-.4-.8-.8-.8H2.4z"></path>
            <path d="M13.5 15.7h-10c-.8 0-1.5-.7-1.5-1.5V7.1h13v7.2c0 .7-.7 1.4-1.5 1.4zM3 8.1v6.2c0 .2.2.4.4.4h10.1c.2 0 .4-.2.4-.4V8.1H3z"></path>
            <path d="M8.1 4.2h1v11.5h-1z"></path>
            <path d="M8.9 5.2H6.3C5 5.2 3.8 4.1 3.8 2.7S5 .2 6.3.2s2.5 1.1 2.5 2.5v2.5zm-2.6-4c-.8 0-1.5.7-1.5 1.5s.7 1.5 1.5 1.5h1.5V2.7c.1-.9-.6-1.5-1.5-1.5z"></path>
            <path d="M10.6 5.2H8.1V2.7C8.1 1.3 9.2.2 10.6.2s2.5 1.1 2.5 2.5-1.1 2.5-2.5 2.5zm-1.5-1h1.5c.8 0 1.5-.7 1.5-1.5s-.7-1.5-1.5-1.5-1.5.6-1.5 1.5v1.5z"></path>
        </g>
    </svg>
    <svg data-name="图层 1" viewBox="0 0 40 40" width="40" height="40" id="radio-Selected" y="351">
        <title>radio-Selected</title>
        <path d="M20 40a20 20 0 1 1 20-20 20 20 0 0 1-20 20zm0-37.5A17.5 17.5 0 1 0 37.5 20 17.52 17.52 0 0 0 20 2.5z" fill="#23ade5"></path>
        <path d="M20 10a10 10 0 0 1 10 10 10 10 0 0 1-10 10 10 10 0 0 1-10-10 10 10 0 0 1 10-10z" fill="#23ade5"></path>
    </svg>
    <svg data-name="图层 1" viewBox="0 0 40 40" width="40" height="40" id="radio-default" y="391">
        <title>radio-default</title>
        <path d="M20 0a20 20 0 0 1 20 20 20 20 0 0 1-20 20A20 20 0 0 1 0 20 20 20 0 0 1 20 0z" fill="#e3e8ec" fill-opacity=".3"></path>
        <path d="M2.5 20A17.5 17.5 0 1 0 20 2.5 17.51 17.51 0 0 0 2.5 20zM0 20a20 20 0 1 1 20 20A20 20 0 0 1 0 20z" fill="#d0d7dd"></path>
    </svg>
    <svg data-name="图层 1" viewBox="0 0 40 40" width="40" height="40" id="renzheng-a" y="431">
        <title>icon_个人认证黄</title>
        <path d="M20 39.17A19.17 19.17 0 1 1 39.17 20 19.19 19.19 0 0 1 20 39.17z" fill="#fff"></path>
        <path d="M20 3.33A16.67 16.67 0 1 0 36.67 20 16.67 16.67 0 0 0 20 3.33zm-3.45 29.44l1.68-11.08-9.48-.1 14-14.36-1.59 11.14 10.09.14z" fill="#ffba51"></path>
    </svg>
    <svg data-name="图层 1" viewBox="0 0 40 40" width="40" height="40" id="renzheng-b" y="471">
        <title>icon_个人认证蓝</title>
        <path d="M20 39.17A19.17 19.17 0 1 1 39.17 20 19.19 19.19 0 0 1 20 39.17z" fill="#fff"></path>
        <path d="M20 3.33A16.67 16.67 0 1 0 36.67 20 16.67 16.67 0 0 0 20 3.33zm-3.45 29.44l1.68-11.08-9.48-.1 14-14.36-1.59 11.14 10.09.14z" fill="#4ac7ff"></path>
    </svg>
    <svg viewBox="0 0 15 15" width="15" height="15" id="star" y="511">
        <title>ic_点评_满星</title>
        <path d="M14.1 4.9l-2.8-.4c-.7-.2-1.3-.6-1.6-1.3L8.5.6c-.4-.9-1.6-.9-2 0L5.3 3.2c-.3.7-.9 1.1-1.6 1.3l-2.8.4C.1 5-.3 6.1.3 6.7l2.1 2.1c.5.5.7 1.2.6 1.9l-.5 3c-.2.9.8 1.6 1.6 1.1l2.4-1.3c.6-.4 1.4-.4 2.1 0l2.4 1.3c.8.4 1.7-.2 1.6-1.1l-.5-3c-.1-.7.1-1.4.6-1.9l2.1-2.1c.5-.6.1-1.7-.7-1.8" fill="#ffa726"></path>
    </svg>
    <svg viewBox="0 0 15 15" width="15" height="15" id="star-empty" y="526">
        <title>ic_点评_无</title>
        <path d="M13 6.3l-1.7 1.8c-.7.7-1 1.7-.8 2.7l.4 2.6c.1.2-.2.4-.4.3l-1.9-1.1c-.9-.5-2.1-.5-3 0l-1.9 1.1c-.2.1-.4-.1-.4-.3l.4-2.6c.2-1-.2-2-.8-2.7L1.3 6.3c-.1-.2 0-.5.2-.5l2.2-.3c1-.2 1.9-.9 2.3-1.8l1-2.2c.1-.2.4-.2.5 0l1 2.2c.4 1 1.3 1.6 2.3 1.8l2.2.3c.1.1.1.3 0 .5m.5-1.4l-2.7-.4c-.7-.1-1.3-.6-1.5-1.2L8.1.6c-.4-.9-1.5-.9-1.9 0L5.1 3.2c-.3.7-.9 1.1-1.6 1.3l-2.6.4C.1 5-.3 6.1.3 6.7l2 2.1c.5.5.7 1.2.6 1.9l-.5 3c-.2.9.8 1.6 1.5 1.1l2.3-1.3c.6-.4 1.4-.4 2 0l2.3 1.3c.8.4 1.6-.2 1.5-1.1l-.5-3c-.1-.7.1-1.4.6-1.9l2-2.1c.6-.6.2-1.7-.6-1.8" fill="#ccc"></path>
    </svg>
    <svg id="taobao-link" data-name="图层 1" viewBox="0 0 16.5 16.5" width="16.5" height="16.5" y="541">
        <defs>
            <style>.cls-1,.cls-2{fill:#00a1d6}.cls-2{fill-rule:evenodd}</style>
        </defs>
        <title>淘宝icon</title>
        <g id="动态淘宝">
            <g id="taobao">
                <g id="编组">
                    <path class="cls-1" d="M13.48 18.25H6a4.55 4.55 0 0 1-4.5-4.57V6.33A4.56 4.56 0 0 1 6 1.75h7.46A4.56 4.56 0 0 1 18 6.33v7.35a4.55 4.55 0 0 1-4.52 4.57zM6 2.75a3.56 3.56 0 0 0-3.5 3.58v7.35A3.55 3.55 0 0 0 6 17.25h7.46A3.55 3.55 0 0 0 17 13.68V6.33a3.56 3.56 0 0 0-3.52-3.58z" transform="translate(-1.5 -1.75)" id="Stroke-1"></path>
                    <path class="cls-2" d="M4.73 9.24a.48.48 0 0 1-.29-.38.44.44 0 0 1 .21-.42.48.48 0 0 1 .49 0l.3.13A2.65 2.65 0 0 1 6.68 10a2 2 0 0 1-.26 1.87l-1.32 2a.49.49 0 0 1-.43.23.47.47 0 0 1-.41-.25.41.41 0 0 1 0-.46l1.32-2a1.22 1.22 0 0 0 .16-1.12 1.67 1.67 0 0 0-.74-.9zm.83-2a.81.81 0 0 1-.69-.39.8.8 0 0 1 .69-1.2.8.8 0 0 1 .8.8.79.79 0 0 1-.8.79zM9 6.54a11.42 11.42 0 0 1 4-.72 2.59 2.59 0 0 1 2.6 2.6v3.9a2.39 2.39 0 0 1-2.41 2.41h-1.26a.47.47 0 0 1-.48-.48.48.48 0 0 1 .48-.48h1.25a1.45 1.45 0 0 0 1.45-1.45v-3.9A1.63 1.63 0 0 0 13 6.78a10.46 10.46 0 0 0-3.91.75l-.69.27h-.13a6.82 6.82 0 0 1-.77.92.48.48 0 0 1-.68-.68 6 6 0 0 0 1.42-2.3v-.17a.5.5 0 0 1 .36-.33.49.49 0 0 1 .47.15.51.51 0 0 1 .09.49l-.06.17c-.05.15-.11.3-.17.45zm3.89 6.14l-.66.33a6.11 6.11 0 0 1-2.72.64h-.29A1.59 1.59 0 0 1 7.73 12a.48.48 0 0 1 .48-.48.47.47 0 0 1 .48.48c0 .32.21.68.53.68h.27a6 6 0 0 0 .84-.07V11H8.16a.49.49 0 0 1-.48-.48.48.48 0 0 1 .48-.52h2.17v-.59h-1l-.16.17-.06.06a.5.5 0 0 1-.47.13.48.48 0 0 1-.34-.35.5.5 0 0 1 .14-.42h.06a2.83 2.83 0 0 0 .65-1 .48.48 0 1 1 .9.33l-.05.12h3.26a.48.48 0 0 1 .48.48.49.49 0 0 1-.48.48h-1.97V10h2a.48.48 0 0 1 0 1h-2v1.36c.17-.06.33-.14.49-.21l.81-.43a.47.47 0 0 1 .36-.46.49.49 0 0 1 .54.23l.31.93a.46.46 0 0 1 0 .48.48.48 0 0 1-.83 0z" transform="translate(-1.5 -1.75)" id="Fill-3"></path>
                </g>
            </g>
        </g>
    </svg>
    <svg data-name="图层 1" viewBox="0 0 13 13" width="13" height="13" id="topic-add" y="558">
        <title>ic_plus_normal</title>
        <path d="M6 6V.5a.5.5 0 0 1 1 0V6h5.5a.5.5 0 0 1 0 1H7v5.5a.5.5 0 0 1-1 0V7H.5a.5.5 0 0 1 0-1z" fill="#00a1d6" data-name="btn 关注"></path>
    </svg>
    <svg data-name="图层 1" viewBox="0 0 13 13" width="13" height="13" id="topic-add-hover" y="571">
        <title>ic_plus_hover</title>
        <path d="M6 6V.5a.5.5 0 0 1 1 0V6h5.5a.5.5 0 0 1 0 1H7v5.5a.5.5 0 0 1-1 0V7H.5a.5.5 0 0 1 0-1z" fill="#00b5e5" data-name="btn 关注-copy-2"></path>
    </svg>
    <svg data-name="图层 1" viewBox="0 0 13 13" width="13" height="13" id="topic-cancel" y="584">
        <title>ic_cancle_normal</title>
        <path d="M7.17 6.5l4.69 4.69a.47.47 0 0 1-.67.67L6.5 7.17l-4.69 4.69a.47.47 0 0 1-.67-.67L5.83 6.5 1.14 1.81a.47.47 0 0 1 .67-.67L6.5 5.83l4.69-4.69a.47.47 0 0 1 .67.67z" fill="#757575" data-name="btn 取消"></path>
    </svg>
    <svg data-name="图层 1" viewBox="0 0 13 13" width="13" height="13" id="topic-cancel-hover" y="597">
        <title>ic_cancle_hover</title>
        <path d="M7.17 6.5l4.69 4.69a.47.47 0 0 1-.67.67L6.5 7.17l-4.69 4.69a.47.47 0 0 1-.67-.67L5.83 6.5 1.14 1.81a.47.47 0 0 1 .67-.67L6.5 5.83l4.69-4.69a.47.47 0 0 1 .67.67z" fill="#00a1d6" data-name="btn 取消-copy-3"></path>
    </svg>
    <svg data-name="图层 1" viewBox="0 0 13 13" width="13" height="13" id="topic-top" y="610">
        <title>ic_top_normal</title>
        <g fill="#757575" data-name="btn 取消">
            <path d="M1.39.46h10.22a.47.47 0 0 1 0 .93H1.39a.47.47 0 0 1 0-.93zM7 3.71v8.83a.46.46 0 1 1-.92 0V3.71a.46.46 0 0 1 .92 0z"></path>
            <path data-name="Combined-Shape" d="M6.54 4.13L.89 9.78a.47.47 0 0 1-.66 0 .46.46 0 0 1 0-.65l5.91-5.91a.44.44 0 0 1 .4-.13.44.44 0 0 1 .4.13l5.91 5.91a.46.46 0 0 1-.65.65z"></path>
        </g>
    </svg>
    <svg data-name="图层 1" viewBox="0 0 13 13" width="13" height="13" id="topic-top-hover" y="623">
        <title>ic_top_hover</title>
        <g fill="#00a1d6" data-name="btn 取消-copy-4">
            <path d="M1.39.46h10.22a.47.47 0 0 1 0 .93H1.39a.47.47 0 0 1 0-.93zM7 3.71v8.83a.46.46 0 1 1-.92 0V3.71a.46.46 0 0 1 .92 0z"></path>
            <path data-name="Combined-Shape" d="M6.54 4.13L.89 9.78a.47.47 0 0 1-.66 0 .46.46 0 0 1 0-.65l5.91-5.91a.44.44 0 0 1 .4-.13.44.44 0 0 1 .4.13l5.91 5.91a.46.46 0 0 1-.65.65z"></path>
        </g>
    </svg>
    <svg data-name="图层 1" viewBox="0 0 40 40" width="40" height="40" id="transmit" y="636">
        <title>transmit</title>
        <path d="M31.35 36.15H8.25A7.17 7.17 0 0 1 1 29.08v-18.5A7.18 7.18 0 0 1 8.25 3.5h13v3h-13A4.17 4.17 0 0 0 4 10.58v18.5a4.17 4.17 0 0 0 4.25 4.08h23.1a4.17 4.17 0 0 0 4.25-4.07V20.2h3v8.9a7.17 7.17 0 0 1-7.25 7.05z" fill="#999"></path>
        <path d="M15 23.64l-2.78-1.13.56-1.39C14.82 16.07 20.57 11 27.59 11h4l-6.12-6 2.09-2.15L38.95 14H27.59c-5.63 0-10.4 4.27-12 8.3z" fill="#999"></path>
    </svg>
    <svg viewBox="0 0 40 40" width="40" height="40" id="transmit-disable" y="676">
        <title>transmit(1)1</title>
        <path d="M35.6 20.2v8.9c-.1 2.3-2 4.1-4.2 4.1H8.2c-2.3 0-4.2-1.8-4.2-4.1V10.6c0-2.3 2-4.1 4.2-4.1h13v-3h-13c-4 0-7.2 3.1-7.2 7.1v18.5c0 4 3.3 7.1 7.2 7.1h23.1c4 0 7.2-3.1 7.2-7.1v-8.9h-2.9z" fill="#dadada"></path>
        <path d="M27.6 11c-7 0-12.8 5.1-14.8 10.2l-.6 1.4 2.8 1.1.6-1.4c1.6-4 6.4-8.3 12-8.3H39L27.6 2.9 25.5 5l6.1 6h-4z" fill="#dadada"></path>
    </svg>
    <svg data-name="图层 1" viewBox="0 0 40 40" width="40" height="40" id="transmit-hover" y="716">
        <title>transmit(1)1</title>
        <path d="M35.58 20.19v8.89a4.17 4.17 0 0 1-4.25 4.07H8.25A4.17 4.17 0 0 1 4 29.08v-18.5A4.17 4.17 0 0 1 8.25 6.5h13v-3h-13A7.18 7.18 0 0 0 1 10.58v18.5a7.17 7.17 0 0 0 7.25 7.08h23.1a7.17 7.17 0 0 0 7.25-7.07v-8.9z" fill="#fb7299"></path>
        <path d="M27.59 11c-7 0-12.77 5.12-14.81 10.17l-.56 1.39L15 23.64l.56-1.39c1.63-4 6.4-8.3 12-8.3h11.39L27.56 2.88 25.47 5l6.09 6z" fill="#fb7299"></path>
    </svg>
    <svg viewBox="0 0 12 13" width="12" height="13" id="vote-btn" y="756">
        <title>Group 2</title>
        <g transform="translate(0 .28)" fill="#00a1d6">
            <path d="M1.4 12C.6 12 0 11.4 0 10.6V4.3c0-.8.6-1.4 1.4-1.4s1.4.6 1.4 1.4v6.3c.1.8-.6 1.4-1.4 1.4zm0-7.9c-.1 0-.2.1-.2.2v6.3c0 .3.5.3.5 0V4.3c0-.1-.1-.2-.3-.2zM6 12c-.8 0-1.4-.6-1.4-1.4V1.4C4.6.6 5.2 0 6 0s1.4.6 1.4 1.4v9.1c0 .9-.6 1.5-1.4 1.5zM6 1.2c-.1 0-.2.1-.2.2v9.1c0 .3.5.3.5 0V1.4c-.1-.1-.2-.2-.3-.2zM10.6 12c-.8 0-1.4-.6-1.4-1.4V7.7c0-.8.6-1.4 1.4-1.4.8 0 1.4.6 1.4 1.4v2.9c0 .8-.6 1.4-1.4 1.4zm0-4.5c-.1 0-.2.1-.2.2v2.9c0 .3.5.3.5 0V7.7c-.1-.1-.2-.2-.3-.2z"></path>
        </g>
    </svg>
    <svg data-name="图层 1" viewBox="0 0 40 40" width="40" height="40" id="zan" y="769">
        <title>support</title>
        <path d="M10.28 34.71h2.5V15.13h-2.5zM25 12.49h10.42a4.14 4.14 0 0 1 3.33 1.67 4.38 4.38 0 0 1 .56 3.47l-4.45 14.72a6.37 6.37 0 0 1-6 4.86H5.56a4.52 4.52 0 0 1-4.31-2.36 5.66 5.66 0 0 1-.69-2.5V17.49a4.91 4.91 0 0 1 2.5-4.31 8.43 8.43 0 0 1 2.5-.69h6.25L18.61 4A3.91 3.91 0 0 1 24 3.74a3.91 3.91 0 0 1 1.25 3.19zM35.14 15H22.22l.28-2.92.42-5.14a1.28 1.28 0 0 0-1-1.53 1.12 1.12 0 0 0-1.25.42L14.31 14l-.83 1.11H5.14a2 2 0 0 0-.83.28 2.29 2.29 0 0 0-1.25 2.08v14.88a2 2 0 0 0 .42 1.25 2 2 0 0 0 2.08 1.11h23.33a2.36 2.36 0 0 0 1.39-.41 3.6 3.6 0 0 0 2.08-2.78l4.44-14.59 2.5.56-2.5-.56a2.4 2.4 0 0 0-.14-1.39 2.91 2.91 0 0 0-1.52-.54l.28-2.5z" fill="#999"></path>
    </svg>
    <svg data-name="图层 1" viewBox="0 0 40 40" width="40" height="40" id="zan-a-hover" y="809">
        <title>zan-hover</title>
        <path d="M38.75 14.16a4.14 4.14 0 0 0-3.33-1.67H25l.25-5.56A3.91 3.91 0 0 0 24 3.74a3.91 3.91 0 0 0-5.39.26l-6.8 8.49H5.56a8.43 8.43 0 0 0-2.5.69 4.91 4.91 0 0 0-2.5 4.31v14.86a5.66 5.66 0 0 0 .69 2.5 4.52 4.52 0 0 0 4.31 2.36h23.3a6.37 6.37 0 0 0 6-4.86l4.45-14.72a4.38 4.38 0 0 0-.56-3.47zM3.48 33.6a2 2 0 0 1-.42-1.25V17.47a2.29 2.29 0 0 1 1.25-2.08 2 2 0 0 1 .83-.28h5.14v19.6H5.56a2 2 0 0 1-2.08-1.11zM36.8 16.93l-4.44 14.59a3.6 3.6 0 0 1-2.08 2.78 2.36 2.36 0 0 1-1.39.41H12.78v-19.6h.7l.83-1.11 6.36-8.17a1.12 1.12 0 0 1 1.25-.42 1.28 1.28 0 0 1 1 1.52l-.42 5.14-.28 2.93h12.92a2.91 2.91 0 0 1 1.52.54 2.4 2.4 0 0 1 .14 1.39z" fill="#fb7299"></path>
    </svg>
    <svg viewBox="0 0 40 40" width="40" height="40" id="zan-disable" y="849">
        <title>support</title>
        <path d="M10.3 34.7h2.5V15.1h-2.5v19.6zM25 12.5h10.4c1.3 0 2.5.6 3.3 1.7.7 1 .9 2.3.6 3.5l-4.5 14.7c-.7 2.8-3.1 4.8-6 4.9H5.6c-1.8.1-3.5-.8-4.3-2.4-.4-.8-.7-1.6-.7-2.5V17.5c0-1.8.9-3.4 2.5-4.3.8-.4 1.6-.6 2.5-.7h6.2L18.6 4c1.4-1.5 3.8-1.6 5.4-.3.9.8 1.3 2 1.2 3.2l-.2 5.6zM35.1 15H22.2l.3-2.9.4-5.1c.2-.7-.3-1.4-1-1.5-.5-.1-1 0-1.2.4L14.3 14l-.8 1.1H5.1c-.3 0-.6.1-.8.3-.8.4-1.3 1.2-1.2 2.1v14.9c0 .5.1.9.4 1.2.4.8 1.2 1.2 2.1 1.1h23.3c.5 0 1-.1 1.4-.4 1.1-.5 1.9-1.6 2.1-2.8l4.4-14.6 2.5.6-2.5-.6c.1-.5 0-1-.1-1.4-.5-.3-1-.5-1.6-.5l.3-2.5-.3 2.5z" fill="#dadada"></path>
    </svg>
    <svg data-name="图层 1" viewBox="0 0 40 40" width="40" height="40" id="zan-hover" y="889">
        <title>icon_赞red</title>
        <path d="M25 12.49h10.42a4.14 4.14 0 0 1 3.33 1.67 4.38 4.38 0 0 1 .56 3.47l-4.45 14.72a6.37 6.37 0 0 1-6 4.86H5.56a4.52 4.52 0 0 1-4.31-2.36 5.66 5.66 0 0 1-.69-2.5V17.49a4.91 4.91 0 0 1 2.5-4.31 8.43 8.43 0 0 1 2.5-.69h6.25L18.61 4A3.91 3.91 0 0 1 24 3.74a3.91 3.91 0 0 1 1.25 3.19z" fill="#fb7299"></path>
        <path data-name="Path" d="M35.14 15H22.22l.28-2.92.42-5.14a1.28 1.28 0 0 0-1-1.53 1.12 1.12 0 0 0-1.25.42L14.31 14l-.83 1.11H5.14a2 2 0 0 0-.83.28 2.29 2.29 0 0 0-1.25 2.08v14.88a2 2 0 0 0 .42 1.25 2 2 0 0 0 2.08 1.11h23.33a2.36 2.36 0 0 0 1.39-.41 3.6 3.6 0 0 0 2.08-2.78l4.44-14.59 2.5.56-2.5-.56a2.4 2.4 0 0 0-.14-1.39 2.91 2.91 0 0 0-1.52-.54l.28-2.5z" fill="#ffd9e5"></path>
        <path fill="#fb7299" d="M10.28 34.71h2.5V15.13h-2.5v19.58z"></path>
    </svg>
</svg>