<svg data-name="图层 1" viewBox="0 0 40 40" width="$(SVG_WIDTH)" height="$(SVG_HEIGHT)" id="zan" y="769">
        <title>support</title>
        <path d="M10.28 34.71h2.5V15.13h-2.5zM25 12.49h10.42a4.14 4.14 0 0 1 3.33 1.67 4.38 4.38 0 0 1 .56 3.47l-4.45 14.72a6.37 6.37 0 0 1-6 4.86H5.56a4.52 4.52 0 0 1-4.31-2.36 5.66 5.66 0 0 1-.69-2.5V17.49a4.91 4.91 0 0 1 2.5-4.31 8.43 8.43 0 0 1 2.5-.69h6.25L18.61 4A3.91 3.91 0 0 1 24 3.74a3.91 3.91 0 0 1 1.25 3.19zM35.14 15H22.22l.28-2.92.42-5.14a1.28 1.28 0 0 0-1-1.53 1.12 1.12 0 0 0-1.25.42L14.31 14l-.83 1.11H5.14a2 2 0 0 0-.83.28 2.29 2.29 0 0 0-1.25 2.08v14.88a2 2 0 0 0 .42 1.25 2 2 0 0 0 2.08 1.11h23.33a2.36 2.36 0 0 0 1.39-.41 3.6 3.6 0 0 0 2.08-2.78l4.44-14.59 2.5.56-2.5-.56a2.4 2.4 0 0 0-.14-1.39 2.91 2.91 0 0 0-1.52-.54l.28-2.5z" fill="#999"></path>
    </svg>