<svg version="1.1" 
    xmlns="http://www.w3.org/2000/svg" x="0" y="0" viewBox="0 0 40 40" xml:space="preserve" width="$(SVG_WIDTH)" height="$(SVG_HEIGHT)">
    <style>.st0{fill:#999}</style>
    <path class="st0" d="M32.9 2.9H7.1C3.2 2.8 0 6 0 9.9V30c0 3.9 3.1 7.1 7 7.1h25.8c3.9 0 7.1-3.1 7.1-7V10c0-3.9-3.1-7.1-7-7.2.1 0 0 0 0 .1zM37.2 30c0 2.3-1.8 4.2-4.1 4.3h-26c-2.3 0-4.2-1.8-4.3-4.1V10c0-2.3 1.8-4.2 4.2-4.3h25.9c2.3 0 4.2 1.8 4.3 4.1V30z"/>
    <path class="st0" d="M27.7 18.7l-11.4-5c-.7-.3-1.5 0-1.9.7-.1.2-.1.4-.1.6v10c0 .8.6 1.4 1.4 1.4.2 0 .4 0 .6-.1l11.4-5c.7-.3 1-1.1.7-1.8-.1-.4-.4-.6-.7-.8z"/>
</svg>