<svg data-name="图层 1" viewBox="0 0 40 40" width="$(SVG_WIDTH)" height="$(SVG_HEIGHT)" id="transmit">
    <title>transmit</title>
    <path d="M31.35 36.15H8.25A7.17 7.17 0 0 1 1 29.08v-18.5A7.18 7.18 0 0 1 8.25 3.5h13v3h-13A4.17 4.17 0 0 0 4 10.58v18.5a4.17 4.17 0 0 0 4.25 4.08h23.1a4.17 4.17 0 0 0 4.25-4.07V20.2h3v8.9a7.17 7.17 0 0 1-7.25 7.05z" fill="#999"></path>
    <path d="M15 23.64l-2.78-1.13.56-1.39C14.82 16.07 20.57 11 27.59 11h4l-6.12-6 2.09-2.15L38.95 14H27.59c-5.63 0-10.4 4.27-12 8.3z" fill="#999"></path>
</svg>